<?xml version="1.0" encoding="utf-8"?>
<!-- Generator: Adobe Illustrator 22.0.0, SVG Export Plug-In . SVG Version: 6.00 Build 0)  -->
<svg version="1.1" id="Layer_1" xmlns="http://www.w3.org/2000/svg" xmlns:xlink="http://www.w3.org/1999/xlink" x="0px" y="0px"
	 viewBox="0 0 400 400" style="enable-background:new 0 0 400 400;" xml:space="preserve">
<style type="text/css">
	.st0{fill:#FFFFFF;}
</style>
<title>Rat_1</title>
<g id="Layer_2_1_">
	<path class="st0" d="M200,0C89.5,0,0,89.5,0,200s89.5,200,200,200s200-89.5,200-200S310.5,0,200,0z M329.4,228.2
		c-3.5,4.4-7.8,8.2-12.5,11.3c-1.9,1.2-4,2.2-6.1,3.1c-5.4,14.4-18.5,19.5-33.2,22.3c-4.7,0.8-9.5,1.1-14.3,1
		c-61.6,0-123.1,0-184.7,0c-12.5,0-18.6-9.5-13-20.7c1.5-3.1,3.8-5.8,5.7-8.7c3.9-6.2,8-12.3,11.5-18.7c2.4-4.4,1.9-9.3,0.8-14.3
		c-1.6-6.7-2.4-13.6-2.3-20.5c0.2-7.2,5.3-11.2,12.5-11.7c12.5-0.9,17,3,19.8,17.7c2.6-2,5.1-3.8,7.4-5.7
		c17.3-14.5,35.3-28.1,55.8-37.9c14.4-6.9,29.4-11.7,45.5-12.9c28.5-2,52.2,8.6,72.5,27.8c11.4,10.8,19.7,23.5,22.1,39.4
		c0.7,7.1,0.5,14.3-0.6,21.3c0.6-0.6,1.2-1.3,1.8-2c13.8-16.7,17.6-41.3,9.8-62.7c-7.5-20.6-25.2-37.5-47.3-45.4
		c-12.7-4.5-26.3-6-39.7-4.3c-14,1.8-28.1,7-41.9,15.5l-2,1.3c-4.7,2.9-9.9,6.3-16.2,7.7c-14.9,3.5-31.3-6-35.8-20.7
		c-0.8-3.6,1.1-7.2,4.5-8.5c3.8-1.5,8,0.4,9.5,4.2c2.2,7.3,11.1,12.4,18.5,10.7c3.9-0.9,7.7-3.3,11.7-5.8l2.1-1.3
		c15.6-9.6,31.7-15.6,47.8-17.6c15.7-2,31.6-0.2,46.5,5.1c26.1,9.3,47.1,29.6,56.1,54.2C351.2,177.3,346.4,207.5,329.4,228.2z"/>
</g>
</svg>
