<svg xmlns="http://www.w3.org/2000/svg" viewBox="0 0 400 400"><defs><style>.cls-1{fill:#fff;}.cls-2{fill:#1a73e8;}</style></defs><title>Rat_1</title><g id="Layer_2" data-name="Layer 2"><g id="Layer_1-2" data-name="Layer 1"><circle class="cls-1" cx="200" cy="200" r="200"/><path class="cls-2" d="M341.6,151c-9-24.61-30-44.85-56.12-54.16A101.4,101.4,0,0,0,239,91.78c-16.09,2-32.16,8-47.76,17.61l-2.14,1.35c-4,2.54-7.82,4.93-11.67,5.82-7.45,1.72-16.27-3.37-18.5-10.68a7.34,7.34,0,0,0-14,4.3c4.49,14.65,20.9,24.12,35.83,20.67,6.27-1.45,11.54-4.77,16.19-7.71l2-1.28c13.8-8.54,27.89-13.77,41.87-15.53a86.64,86.64,0,0,1,39.69,4.33c22.05,7.86,39.72,24.83,47.27,45.4,7.88,21.45,4.05,46.07-9.76,62.72-.59.72-1.18,1.38-1.77,2a85.92,85.92,0,0,0,.6-21.32c-2.37-15.9-10.64-28.57-22.06-39.39-20.32-19.23-44-29.77-72.51-27.79-16.06,1.13-31.06,6-45.48,12.87C156.3,155,138.29,168.53,121,183.07c-2.31,1.93-4.76,3.69-7.38,5.71-2.82-14.7-7.26-18.53-19.78-17.67-7.25.5-12.32,4.5-12.52,11.72a85.27,85.27,0,0,0,2.28,20.53c1.11,5,1.64,9.84-.76,14.28-3.48,6.43-7.57,12.53-11.45,18.74-1.84,2.94-4.15,5.64-5.68,8.73-5.57,11.23.45,20.7,13,20.7q92.34,0,184.68,0a77,77,0,0,0,14.25-1c14.74-2.81,27.83-7.88,33.22-22.29a39.84,39.84,0,0,0,6.07-3.09,52.11,52.11,0,0,0,12.5-11.25C346.44,207.55,351.24,177.27,341.6,151Z"/></g></g></svg>