<svg xmlns="http://www.w3.org/2000/svg" viewBox="0 0 400 400"><defs><style>.cls-1{fill:#fff;}.cls-2{fill:#1a73e8;}</style></defs><title>Weight_1</title><g id="Layer_2" data-name="Layer 2"><g id="Layer_1-2" data-name="Layer 1"><circle class="cls-1" cx="200" cy="200" r="200"/><path class="cls-2" d="M164.43,116.86c-16-25.47-5.58-49.11,7.95-60.11a43.75,43.75,0,0,1,53.67-1.08,43.08,43.08,0,0,1,17.06,28.38c1.87,11.71-1,22.39-7.76,32.56,1.71.11,2.88.25,4.05.25q23.47,0,47,0c15.79,0,24.39,7,26.83,22.54,4.22,27,8.18,54.11,12.26,81.17,3.25,21.59,5.82,43.32,10,64.74,2.74,14-9.59,24.74-21.55,24.73-18.49,0-37,.05-55.46.05q-85.21,0-170.44-.15a30.5,30.5,0,0,1-11.72-2.35c-8.92-3.83-13.27-12.27-11.86-21.12,5.28-33.15,10.08-66.37,15.11-99.56,2.5-16.52,4.77-33.09,7.75-49.53,2.53-14,11.06-20.53,25.15-20.53q23.69,0,47.37,0Zm7,105.68c.7,1.72,1.23,2.93,1.7,4.17,3.32,8.68,6.57,17.38,10,26,.47,1.19,1.65,2.88,2.63,3,3.82.35,7.69.14,12,.14-.61-1.79-1-3.05-1.47-4.27-5.07-12.91-10-25.85-15.31-38.68a8.54,8.54,0,0,1,.37-7.91c4.93-9.72,9.66-19.55,14.45-29.35.63-1.28,1.14-2.62,1.95-4.47-3.54,0-6.5.18-9.43-.05-2.72-.22-4.08.84-5.19,3.29-3.87,8.59-8,17.08-12,25.61-1,2.1-2,4.18-3.05,6.28l-.86-.24V171.39h-13v84.14h13.22c0-6.8.25-13.27-.09-19.71A19.63,19.63,0,0,1,171.42,222.54Zm74.51-23c0-4,.19-7.51,0-11-.63-9.37-5.14-15.74-13-17.49-12.21-2.72-26.25.16-26.56,19.55,0,1.08,0,2.16,0,3.24,0,13.49,0,27,0,40.47A43.36,43.36,0,0,0,207,242c1.84,9.79,8,14.6,18.71,14.73,11,.14,18.38-4.51,19.32-14.29,1.06-11,.24-22.23.24-33.7H227.64v11.91l5.68.36c0,5.5.1,10.74,0,16s-2.16,7.47-6.42,7.61c-4.6.16-7.15-2-7.22-7.23q-.32-23.88,0-47.76c.06-5,2.64-7.36,6.79-7.36,4.38,0,6.63,2.46,6.84,7.72.13,3.18,0,6.37,0,9.63Zm-45.93-83a25.84,25.84,0,0,0-.08-51.68,25.84,25.84,0,1,0,.08,51.68Z"/></g></g></svg>