<?xml version="1.0" encoding="utf-8"?>
<!-- Generator: Adobe Illustrator 22.0.0, SVG Export Plug-In . SVG Version: 6.00 Build 0)  -->
<svg version="1.1" id="Layer_1" xmlns="http://www.w3.org/2000/svg" xmlns:xlink="http://www.w3.org/1999/xlink" x="0px" y="0px"
	 viewBox="0 0 400 400" style="enable-background:new 0 0 400 400;" xml:space="preserve">
<style type="text/css">
	.st0{fill:#FFFFFF;}
</style>
<title>Weight_1</title>
<g id="Layer_2_1_">
	<g>
		<path class="st0" d="M181,212.9c-1.2-2.5-1-5.5,0.4-7.9c4.9-9.7,9.7-19.5,14.5-29.4c0.6-1.3,1.1-2.6,2-4.5c-3.5,0-6.5,0.2-9.4,0
			c-2.7-0.2-4.1,0.8-5.2,3.3c-3.9,8.6-8,17.1-12,25.6c-1,2.1-2,4.2-3.1,6.3l-0.9-0.2v-34.7h-13v84.1h13.2c0-6.8,0.3-13.3-0.1-19.7
			c-0.3-4.8,1.1-9.5,4.1-13.3h0c0.7,1.7,1.2,2.9,1.7,4.2c3.3,8.7,6.6,17.4,10,26c0.5,1.2,1.6,2.9,2.6,3c3.8,0.3,7.7,0.1,12,0.1
			c-0.6-1.8-1-3-1.5-4.3C191.2,238.7,186.3,225.7,181,212.9z"/>
		
			<ellipse transform="matrix(0.8154 -0.5788 0.5788 0.8154 -15.595 132.4879)" class="st0" cx="200" cy="90.7" rx="25.8" ry="25.8"/>
		<path class="st0" d="M232.9,171c-12.2-2.7-26.3,0.2-26.6,19.5c0,1.1,0,2.2,0,3.2c0,13.5,0,27,0,40.5c0,2.6,0.2,5.2,0.6,7.7
			c1.8,9.8,8,14.6,18.7,14.7c11,0.1,18.4-4.5,19.3-14.3c1.1-11,0.2-22.2,0.2-33.7h-17.6v11.9l5.7,0.4c0,5.5,0.1,10.7,0,16
			c-0.1,5.3-2.2,7.5-6.4,7.6c-4.6,0.2-7.2-2-7.2-7.2c-0.2-15.9-0.2-31.8,0-47.8c0.1-5,2.6-7.4,6.8-7.4c4.4,0,6.6,2.5,6.8,7.7
			c0.1,3.2,0,6.4,0,9.6l12.6-0.1c0-4,0.2-7.5,0-11C245.3,179.2,240.8,172.8,232.9,171z"/>
		<path class="st0" d="M200,0C89.5,0,0,89.5,0,200s89.5,200,200,200s200-89.5,200-200S310.5,0,200,0z M313.9,310
			c-18.5,0-37,0-55.5,0c-56.8,0-113.6,0-170.4-0.1c-4,0-8-0.8-11.7-2.4c-8.9-3.8-13.3-12.3-11.9-21.1c5.3-33.1,10.1-66.4,15.1-99.6
			c2.5-16.5,4.8-33.1,7.8-49.5c2.5-14,11.1-20.5,25.2-20.5c15.8,0,31.6,0,47.4,0l4.6,0c-16-25.5-5.6-49.1,8-60.1
			c15.5-12.6,37.6-13,53.7-1.1c9.2,6.8,15.4,17,17.1,28.4c1.9,11.7-1,22.4-7.8,32.6c1.7,0.1,2.9,0.3,4.1,0.3c15.6,0,31.3,0,47,0
			c15.8,0,24.4,7,26.8,22.5c4.2,27,8.2,54.1,12.3,81.2c3.3,21.6,5.8,43.3,10,64.7C338.2,299.3,325.9,310,313.9,310z"/>
	</g>
</g>
</svg>
